<svg width="61" height="60" viewBox="0 0 61 60" fill="none" xmlns="http://www.w3.org/2000/svg">
<path fill-rule="evenodd" clip-rule="evenodd" d="M16.8316 43.6306C16.8316 44.7808 17.7544 45.7143 18.8916 45.7143C20.0287 45.7143 20.9515 44.7808 20.9515 43.6306V14.6308L27.5132 21.2931C28.3152 22.1099 29.6171 22.1099 30.4247 21.2987C31.2322 20.4874 31.2349 19.1677 30.4302 18.3509L20.35 8.11288C19.7622 7.51277 18.8723 7.33774 18.106 7.65724C17.3342 7.97952 16.8316 8.738 16.8316 9.5826V43.6306ZM8.81032 21.906C8.28571 21.906 7.75836 21.7032 7.35735 21.2975C6.54984 20.4863 6.5471 19.1694 7.35186 18.3525L11.3619 14.2768C12.1667 13.46 13.4686 13.46 14.2761 14.2712C15.0809 15.0825 15.0836 16.4022 14.2816 17.219L10.2688 21.292C9.86777 21.7032 9.33767 21.906 8.81032 21.906ZM42.6474 52.3416C42.9001 52.4472 43.1666 52.5 43.433 52.5C43.9713 52.5 44.4987 52.2888 44.8914 51.886L53.5186 43.1204C54.3206 42.3036 54.3179 40.9839 53.5131 40.1727C52.7056 39.3614 51.401 39.3642 50.5989 40.1782L45.493 45.3709V16.3655C45.493 15.2153 44.5728 14.2818 43.433 14.2818C42.2959 14.2818 41.373 15.2153 41.373 16.3655V50.4162C41.373 51.2608 41.8756 52.0193 42.6474 52.3416ZM35.9017 45.7187C36.3055 46.1299 36.8356 46.3327 37.3629 46.3327C37.8875 46.3327 38.4149 46.1299 38.8159 45.7243C39.6234 44.913 39.6262 43.5961 38.8241 42.7793L34.8141 38.7035C34.0065 37.8867 32.7046 37.8867 31.8999 38.698C31.0924 39.5092 31.0896 40.8289 31.8916 41.6457L35.9017 45.7187Z" fill="#28D1B3"/>
</svg>
