<svg width="70" height="70" viewBox="0 0 70 70" fill="none" xmlns="http://www.w3.org/2000/svg">
<rect width="70" height="70" rx="24" fill="#9ABEFF" fill-opacity="0.2"/>
<path d="M12 30.6429C12 27.0446 14.875 23.9107 18.9 22.808C18.9 22.6339 18.9 22.4598 18.9 22.2857C18.9 17.1786 24.0031 13 30.4 13C34.6406 13 38.3781 15.8117 40.3188 18.5974C41.3969 17.9591 43.3497 17.0345 44.7872 17.0345C48.5966 17.0345 51.1 19.2098 51.1 22.2857C51.1 23.0402 50.8844 23.6786 50.5969 24.317C54.8375 25.0134 58 28.0312 58 31.5714C58 35.692 53.8312 39 48.8 39H22.35C16.6 39 12 35.2857 12 30.6429Z" fill="white"/>
<rect x="20" y="36" width="30" height="9.625" rx="2" fill="#006FEA"/>
<rect x="22" y="38.75" width="18" height="2.75" rx="1.375" fill="white"/>
<circle cx="42.9998" cy="40.1252" r="1.1726" fill="#81BDFF"/>
<circle cx="46.0281" cy="40.1252" r="1.1726" fill="#FFD93B"/>
<rect x="20" y="47.625" width="30" height="9.625" rx="2" fill="#81BDFF"/>
<rect x="22" y="50.375" width="18" height="2.75" rx="1.375" fill="white"/>
<circle cx="42.9998" cy="51.7502" r="1.1726" fill="#006FEA"/>
<circle cx="46.0281" cy="51.7502" r="1.1726" fill="#FFD93B"/>
<path d="M28.2072 22.3034L25.2962 25.2886C24.902 25.6617 24.902 26.3147 25.2962 26.6879C25.6601 27.0921 26.2968 27.0921 26.6607 26.6879L27.9039 25.413L27.9039 32.1163C27.9039 32.6449 28.3588 33.1113 28.8743 33.1113C29.4201 33.1113 29.8446 32.6449 29.8446 32.1163L29.8446 25.413L31.1182 26.6879C31.482 27.0921 32.1188 27.0921 32.4827 26.6879C32.8769 26.3147 32.8769 25.6617 32.4827 25.2886L29.5717 22.3034C29.2078 21.8992 28.571 21.8992 28.2072 22.3034Z" fill="#81BDFF"/>
<path d="M41.7938 32.8079L44.7048 29.8228C45.099 29.4496 45.099 28.7966 44.7048 28.4235C44.3409 28.0192 43.7041 28.0192 43.3403 28.4235L42.097 29.6984V22.9951C42.097 22.4664 41.6422 22 41.1267 22C40.5809 22 40.1564 22.4664 40.1564 22.9951V29.6984L38.8828 28.4235C38.519 28.0192 37.8822 28.0192 37.5183 28.4235C37.1241 28.7966 37.1241 29.4496 37.5183 29.8228L40.4293 32.8079C40.7932 33.2122 41.4299 33.2122 41.7938 32.8079Z" fill="#006FEA"/>
</svg>
