<svg width="70" height="70" viewBox="0 0 70 70" fill="none" xmlns="http://www.w3.org/2000/svg">
<rect width="70" height="70" rx="24" fill="#FFD243" fill-opacity="0.1"/>
<g clip-path="url(#clip0_5558_2799)">
<path d="M44.8656 52.65V13.124C44.8656 11.951 43.9147 11 42.7416 11H17.7861C16.613 11 15.6621 11.951 15.6621 13.124V52.65C15.6621 53.8231 16.6131 54.774 17.7861 54.774H42.7416C43.9147 54.7741 44.8656 53.8231 44.8656 52.65Z" fill="#FFE07D"/>
<path d="M47.9877 11H41.8721C43.0452 11 43.9961 11.951 43.9961 13.124V52.65C43.9961 53.8231 43.0452 54.774 41.8721 54.774H47.9877C49.1608 54.774 50.1117 53.823 50.1117 52.65V13.124C50.1117 11.951 49.1608 11 47.9877 11Z" fill="#FFD064"/>
<path d="M47.0719 59.0001C48.245 59.0001 49.196 58.0491 49.196 56.8761V17.3501C49.196 16.1776 48.246 15.2271 47.0739 15.2261H22.124C20.9509 15.2261 20 16.1771 20 17.3501V56.8761C20 58.0492 20.951 59.0001 22.124 59.0001H47.0719Z" fill="#F4FBFF"/>
<path d="M52.3263 15.2261H46.2031C47.3762 15.2261 48.3272 16.1771 48.3272 17.3502V56.8762C48.3272 58.0493 47.3762 59.0002 46.2031 59.0002H52.3263C53.4994 59.0002 54.4503 58.0492 54.4503 56.8762V17.3502C54.4503 16.1771 53.4994 15.2261 52.3263 15.2261Z" fill="#E4F6FF"/>
<path d="M37 34.0077C41.4183 34.0077 45 30.4243 45 26.0039C45 21.5835 41.4183 18 37 18C32.5817 18 29 21.5835 29 26.0039C29 30.4243 32.5817 34.0077 37 34.0077Z" fill="#FFD93B"/>
<path d="M37.9304 25.2386H37.7655V22.5829H37.9305C38.2719 22.5829 38.5602 22.9514 38.5602 23.3875C38.5602 23.8102 38.9027 24.1528 39.3252 24.1528C39.7476 24.1528 40.0901 23.8102 40.0901 23.3875C40.0901 22.0999 39.1212 21.0523 37.9304 21.0523H37.7654V20.6291C37.7654 20.2064 37.423 19.8638 37.0005 19.8638C36.5781 19.8638 36.2356 20.2064 36.2356 20.6291V21.0523H36.0708C34.8799 21.0523 33.9111 22.0999 33.9111 23.3875V24.4341C33.9111 25.7217 34.88 26.7693 36.0708 26.7693H36.2356V29.425H36.0708C35.7294 29.425 35.4409 29.0565 35.4409 28.6204C35.4409 28.1977 35.0985 27.8551 34.676 27.8551C34.2536 27.8551 33.9111 28.1977 33.9111 28.6204C33.9111 29.908 34.88 30.9556 36.0708 30.9556H36.2356V31.3788C36.2356 31.8014 36.5781 32.1441 37.0005 32.1441C37.4231 32.1441 37.7654 31.8014 37.7654 31.3788V30.9556H37.9304C39.1212 30.9556 40.0901 29.908 40.0901 28.6204V27.5738C40.0902 26.2861 39.1214 25.2386 37.9304 25.2386ZM36.0708 25.2387C35.7294 25.2387 35.4409 24.8702 35.4409 24.4341V23.3875C35.4409 22.9514 35.7293 22.5829 36.0708 22.5829H36.2356V25.2386H36.0708V25.2387ZM38.5603 28.6204C38.5603 29.0565 38.272 29.425 37.9306 29.425H37.7656V26.7692H37.9305C38.272 26.7692 38.5603 27.1377 38.5603 27.5738V28.6204Z" fill="white"/>
<path d="M49.3216 38.2484H24.1442C23.7442 38.2484 23.4199 37.9241 23.4199 37.5241C23.4199 37.1241 23.7442 36.7998 24.1442 36.7998H49.3216C49.7217 36.7998 50.046 37.1241 50.046 37.5241C50.046 37.9241 49.7217 38.2484 49.3216 38.2484Z" fill="#407093"/>
<path d="M42.4674 42.9154H23.9526C23.6584 42.9154 23.4199 42.5911 23.4199 42.1911C23.4199 41.7911 23.6584 41.4668 23.9526 41.4668H42.4674C42.7615 41.4668 43 41.7911 43 42.1911C43 42.5911 42.7615 42.9154 42.4674 42.9154Z" fill="#407093"/>
<path d="M38.5762 47.5829H23.8437C23.6097 47.5829 23.4199 47.2586 23.4199 46.8586C23.4199 46.4586 23.6097 46.1343 23.8437 46.1343H38.5762C38.8102 46.1343 39 46.4586 39 46.8586C39 47.2586 38.8102 47.5829 38.5762 47.5829Z" fill="#407093"/>
<path d="M33.7122 52.2499H23.7077C23.5488 52.2499 23.4199 51.9256 23.4199 51.5256C23.4199 51.1255 23.5488 50.8013 23.7077 50.8013H33.7122C33.8711 50.8013 34 51.1255 34 51.5256C34 51.9256 33.8711 52.2499 33.7122 52.2499Z" fill="#407093"/>
</g>
<path d="M52.1968 44.387C52.1129 44.3746 52.031 44.3407 51.9596 44.2843C51.743 44.113 51.7064 43.7984 51.8778 43.5818L57.5824 36.3726C57.6649 36.2683 57.6473 36.1169 57.543 36.0344L56.6728 35.3458C56.458 35.1759 56.4017 34.8622 56.5651 34.6424C56.7341 34.415 57.0562 34.3738 57.2768 34.5484L58.7368 35.7037C58.7912 35.7468 58.8393 35.7986 58.8723 35.8597C58.9718 36.0435 58.9478 36.2588 58.8264 36.4123L52.6621 44.2025C52.5472 44.3478 52.3678 44.4121 52.1968 44.387Z" fill="#7CA1B1"/>
<path d="M50.0023 43.742L40.9794 55.1448L38.9877 54.2787L37.3104 52.2417L46.3328 40.8384L48.5759 41.501L50.0023 43.742Z" fill="#FF8D64"/>
<path d="M57.9177 32.1288C57.8796 32.3881 57.775 32.6416 57.6003 32.8626L56.6553 34.0569L55.1793 33.3403L54.2274 32.1361L55.1732 30.9413C55.5877 30.4179 56.2717 30.2345 56.8701 30.4323C57.038 30.4866 57.2 30.5724 57.3468 30.6883C57.7965 31.0442 57.9954 31.599 57.9177 32.1288Z" fill="#FCCB99"/>
<path d="M57.2761 34.5482L50.0012 43.7419L46.3318 40.8384L53.292 32.0433C53.4661 31.8234 53.7855 31.7862 54.0054 31.9602L57.2761 34.5482Z" fill="#FFE1C5"/>
<path d="M39.5213 53.9913L39.5211 53.9919L37.3096 52.2417L39.5213 53.9913Z" fill="#FF8D64"/>
<path d="M40.9787 55.1449L37.0748 57.2398C36.589 57.5007 36.0263 57.0555 36.1685 56.5231L36.3964 55.669L37.3096 52.2412L39.5218 53.9921L40.9787 55.1449Z" fill="#FCCB99"/>
<defs>
<clipPath id="clip0_5558_2799">
<rect width="48" height="48" fill="white" transform="translate(11 11)"/>
</clipPath>
</defs>
</svg>
