<svg width="70" height="70" viewBox="0 0 70 70" fill="none" xmlns="http://www.w3.org/2000/svg">
<rect width="70" height="70" rx="24" fill="#FF9933" fill-opacity="0.1"/>
<path d="M29.9439 19.5146C29.9439 19.0277 29.5491 18.633 29.0622 18.633H19.6377V16.8696H29.0622C30.523 16.8696 31.7072 18.0538 31.7072 19.5146V24.7435H29.9439V19.5146Z" fill="#FF8B22" stroke="#FF8B22"/>
<path d="M19.6377 13.9541C21.7347 13.9541 23.4345 15.654 23.4346 17.751C23.4346 19.848 21.7347 21.5479 19.6377 21.5479C17.5407 21.5478 15.8408 19.848 15.8408 17.751C15.8409 15.6541 17.5408 13.9542 19.6377 13.9541Z" fill="white" stroke="#FF8B22" stroke-width="2"/>
<path d="M41.9633 50.9502C41.9633 51.4371 42.3581 51.8319 42.845 51.8319L52.2695 51.8319L52.2695 53.5952L42.845 53.5952C41.3842 53.5952 40.2 52.411 40.2 50.9502L40.2 45.7214L41.9633 45.7214L41.9633 50.9502Z" fill="#FF8B22" stroke="#FF8B22"/>
<path d="M52.2695 56.5107C50.1725 56.5107 48.4727 54.8108 48.4727 52.7139C48.4727 50.6168 50.1725 48.917 52.2695 48.917C54.3665 48.9171 56.0664 50.6169 56.0664 52.7139C56.0663 54.8108 54.3665 56.5107 52.2695 56.5107Z" fill="white" stroke="#FF8B22" stroke-width="2"/>
<path d="M40.1992 25.575C40.1992 24.1143 41.3834 22.9301 42.8442 22.9301H50.0396C50.5264 22.93 50.9211 22.5351 50.9213 22.0484V18.6836H52.6846V22.0484C52.6845 23.509 51.5002 24.6933 50.0396 24.6934H42.8442C42.3573 24.6934 41.9625 25.0881 41.9625 25.575V30.3381H40.1992V25.575Z" fill="#FFD93B" stroke="#FFD93B"/>
<path d="M52.2695 13C54.3665 13 56.0663 14.6999 56.0664 16.7969C56.0664 18.8939 54.3666 20.5938 52.2695 20.5938C50.1726 20.5937 48.4727 18.8939 48.4727 16.7969C48.4727 14.7 50.1726 13.0001 52.2695 13Z" fill="white" stroke="#FFD93B" stroke-width="2"/>
<path d="M25.7482 49.086V45.7212H27.5116V49.086C27.5114 50.5466 26.3273 51.731 24.8666 51.731H20.1035V49.9677H24.8666C25.3534 49.9676 25.7481 49.5728 25.7482 49.086Z" fill="#FFD93B" stroke="#FFD93B"/>
<path d="M16.7969 47.0522C18.8939 47.0522 20.5937 48.7522 20.5938 50.8491C20.5938 52.9462 18.8939 54.646 16.7969 54.646C14.6999 54.6459 13 52.9461 13 50.8491C13.0001 48.7522 14.7 47.0523 16.7969 47.0522Z" fill="white" stroke="#FFD93B" stroke-width="2"/>
<path d="M16.8408 38.8622C16.8408 35.5074 19.2882 32.5855 22.7145 31.5575C22.7145 31.3951 22.7145 31.2328 22.7145 31.0705C22.7145 26.3089 27.0586 22.4131 32.5041 22.4131C36.1139 22.4131 39.2955 25.0346 40.9475 27.6318C41.8653 27.0366 43.5277 26.1746 44.7514 26.1746C47.9942 26.1746 50.1252 28.2027 50.1252 31.0705C50.1252 31.7739 49.9416 32.3691 49.6969 32.9643C53.3068 33.6136 55.9989 36.4273 55.9989 39.7279C55.9989 43.5696 52.4502 46.6538 48.1673 46.6538H25.6514C20.7566 46.6538 16.8408 43.1909 16.8408 38.8622Z" fill="#FF8B22"/>
<path d="M38.5307 28.9771C39.0256 29.1229 39.3168 29.6186 39.1712 30.1143L35.4448 43.1777C35.2992 43.6734 34.8043 43.965 34.3094 43.8192C33.8144 43.6734 33.5233 43.1777 33.6689 42.682L37.3953 29.6186C37.5409 29.1229 38.0358 28.8313 38.5307 28.9771ZM40.8888 32.4762C41.2382 32.0971 41.8496 32.0971 42.1989 32.4762L45.4595 35.7421C45.838 36.092 45.838 36.7043 45.4595 37.0542L42.1989 40.3201C41.8496 40.6992 41.2382 40.6992 40.8888 40.3201C40.5104 39.9702 40.5104 39.3578 40.8888 39.0079L43.4799 36.3836L40.8888 33.7884C40.5104 33.4385 40.5104 32.8261 40.8888 32.4762ZM31.9512 32.4762C32.3297 32.8261 32.3297 33.4385 31.9512 33.7884L29.3602 36.3836L31.9512 39.0079C32.3297 39.3578 32.3297 39.9702 31.9512 40.3201C31.6019 40.6992 30.9905 40.6992 30.6412 40.3201L27.3805 37.0542C27.0021 36.7043 27.0021 36.092 27.3805 35.7421L30.6412 32.4762C30.9905 32.0971 31.6019 32.0971 31.9512 32.4762Z" fill="white"/>
</svg>
