<svg width="70" height="70" viewBox="0 0 70 70" fill="none" xmlns="http://www.w3.org/2000/svg">
<rect width="70" height="70" rx="24" fill="#28D1B3" fill-opacity="0.1"/>
<rect x="13" y="17" width="44" height="31.4285" rx="3" fill="white"/>
<path d="M42.6332 48.4287C42.9332 48.4287 43.2335 48.5528 43.4049 48.8005L46.104 52.7019C46.4468 53.1973 46.0188 53.8163 45.3332 53.8165H24.6679C23.9823 53.8163 23.5543 53.1973 23.8971 52.7019L26.5962 48.8005C26.7676 48.5528 27.0679 48.4287 27.3679 48.4287H42.6332Z" fill="#3EB27F"/>
<path d="M13 43.939H57V45.4288C57 47.0856 55.6569 48.4288 54 48.4288H16C14.3431 48.4288 13 47.0856 13 45.4288V43.939Z" fill="#4FD79C"/>
<path fill-rule="evenodd" clip-rule="evenodd" d="M25.011 25.9219C25.6213 26.9473 26.6792 27.5625 27.8592 27.5625C28.9984 27.5625 30.0563 26.9473 30.6667 25.9219C31.2363 24.9375 31.2363 23.666 30.6667 22.6406C30.0563 21.6563 28.9984 21 27.8592 21C26.6792 21 25.6213 21.6563 25.011 22.6406C24.4413 23.666 24.4413 24.9375 25.011 25.9219ZM39.9844 25.9219C40.5947 26.9473 41.6526 27.5625 42.8326 27.5625C43.9718 27.5625 45.0297 26.9473 45.6401 25.9219C46.2097 24.9375 46.2097 23.666 45.6401 22.6406C45.0297 21.6563 43.9718 21 42.8326 21C41.6526 21 40.5947 21.6563 39.9844 22.6406C39.4147 23.666 39.4147 24.9375 39.9844 25.9219ZM26.313 28.875C23.9124 28.875 22 30.8438 22 33.2637C22 33.7559 22.3662 34.125 22.8545 34.125H31.5618C30.4632 33.1816 29.8122 31.7871 29.8122 30.1875C29.8122 29.9004 29.8122 29.5723 29.8936 29.2852C29.3239 29.0391 28.7136 28.875 28.0626 28.875H26.313ZM31.1142 30.1875C31.1142 32.3613 32.8639 34.125 35.0203 34.125C35.9969 34.125 36.8513 33.7969 37.543 33.1816C37.6041 33.0996 37.6549 33.0278 37.7058 32.9561C37.7567 32.8843 37.8075 32.8125 37.8685 32.7305C37.9906 32.6074 38.1127 32.4844 38.2347 32.4023C38.6823 31.7871 38.9264 31.0078 38.9264 30.1875C38.9264 28.0137 37.1768 26.25 35.0203 26.25C32.8639 26.25 31.1142 28.0137 31.1142 30.1875ZM37.7872 36.668L37.6651 36.627C37.2582 36.3809 36.9327 35.9297 36.8106 35.4375H32.6197C29.6088 35.4375 27.2081 37.8984 27.2081 40.9336C27.2081 41.5078 27.6557 42 28.266 42H40.5133C40.4319 41.7949 40.3912 41.5898 40.3912 41.3438V41.2207C40.3602 41.205 40.335 41.1954 40.3135 41.1871C40.2788 41.1737 40.2536 41.164 40.2285 41.1387L40.1064 41.1797C39.4147 41.5898 38.4382 41.5078 37.8685 40.8105L37.3803 40.0723L37.2582 39.8672C37.1972 39.7441 37.1362 39.6108 37.0751 39.4775C37.0141 39.3442 36.9531 39.2109 36.892 39.0879C36.5665 38.2266 36.9734 37.3242 37.6651 36.9141L37.7872 36.873V36.791V36.668ZM48 33.0996C47.9186 30.7617 46.0063 28.875 43.687 28.875H41.9374C41.2864 28.875 40.6761 29.0391 40.1471 29.2852C40.1878 29.5723 40.2285 29.9004 40.2285 30.1875C40.2285 30.9258 40.0657 31.582 39.8216 32.1973C39.8408 32.2069 39.8623 32.2166 39.885 32.2269C39.9583 32.2599 40.0443 32.2987 40.1064 32.3613L40.2285 32.4023C40.2536 32.377 40.2788 32.3673 40.3135 32.3539C40.335 32.3457 40.3602 32.336 40.3912 32.3203V32.1973C40.3912 31.418 40.9202 30.5977 41.8153 30.4336C42.1408 30.3926 42.4664 30.3516 42.8326 30.3516C43.1581 30.3516 43.4836 30.3926 43.8091 30.4336C44.7042 30.5977 45.2739 31.418 45.2739 32.1973V32.3203C45.299 32.3457 45.3242 32.3553 45.3589 32.3687C45.3804 32.377 45.4055 32.3867 45.4366 32.4023L45.518 32.3613C46.2097 31.9512 47.1862 32.0332 47.7559 32.7305L48 33.0996Z" fill="#40C38A"/>
<path fill-rule="evenodd" clip-rule="evenodd" d="M47.3897 35.6016L47.2676 35.6836C46.9014 35.8887 46.698 36.3398 46.698 36.75C46.698 37.2012 46.9014 37.6113 47.2676 37.8574L47.3897 37.8984C47.6338 38.0625 47.7559 38.3496 47.6745 38.6367C47.5931 38.8828 47.471 39.0879 47.349 39.293L47.2676 39.457C47.1455 39.6621 47.0235 39.8672 46.8607 40.0723C46.6573 40.2773 46.3318 40.3184 46.0876 40.1953L45.9656 40.1133C45.5994 39.9082 45.1518 39.9492 44.7449 40.1543C44.3787 40.4004 44.0939 40.7695 44.0939 41.1797V41.3438C44.0939 41.6309 43.8905 41.918 43.6056 41.959C43.3615 42 43.0767 42 42.7919 42C42.5477 42 42.2629 42 41.9781 41.959C41.6933 41.918 41.4898 41.6309 41.4898 41.3438V41.1797C41.4898 40.7695 41.205 40.4004 40.8388 40.1543C40.4726 39.9492 40.025 39.9082 39.6588 40.1133L39.5368 40.1953C39.252 40.3184 38.9264 40.2773 38.7637 40.0723C38.6009 39.8672 38.4789 39.6621 38.3568 39.457L38.2347 39.293C38.1127 39.0879 38.0313 38.8828 37.9499 38.6367C37.8279 38.3906 37.9499 38.0625 38.2347 37.8984L38.3568 37.8574C38.723 37.6113 38.8858 37.2012 38.8858 36.75C38.8858 36.3398 38.723 35.8887 38.3568 35.6836L38.2347 35.6016C37.9499 35.4785 37.8279 35.1504 37.9499 34.8633C38.0313 34.6582 38.1534 34.4531 38.2347 34.207L38.3568 34.084C38.4789 33.8379 38.6009 33.6738 38.7637 33.4688C38.9264 33.2227 39.2926 33.1816 39.5368 33.3457L39.6588 33.4277C40.025 33.6328 40.4726 33.5918 40.8388 33.3457C41.2457 33.1406 41.4898 32.7715 41.4898 32.3203V32.1973C41.4898 31.9102 41.6933 31.623 42.0188 31.582C42.2629 31.541 42.5477 31.5 42.7919 31.5C43.0767 31.5 43.3615 31.541 43.6056 31.582C43.9311 31.623 44.0939 31.9102 44.0939 32.1973V32.3203C44.0939 32.7715 44.3787 33.1406 44.7856 33.3457C45.1518 33.5918 45.5994 33.6328 45.9656 33.4277L46.0876 33.3457C46.3318 33.1816 46.6573 33.2227 46.8607 33.4688C47.0235 33.6738 47.1455 33.8379 47.2676 34.043L47.3897 34.207C47.471 34.4531 47.5931 34.6582 47.6745 34.8633C47.7966 35.1504 47.6338 35.4785 47.3897 35.6016ZM42.0188 38.1855C41.4898 37.8984 41.205 37.3652 41.205 36.75C41.205 36.1758 41.4898 35.6426 42.0188 35.3555C42.507 35.0684 43.1174 35.0684 43.6463 35.3555C44.1346 35.6426 44.4601 36.1758 44.4601 36.75C44.4601 37.3652 44.1346 37.8984 43.6463 38.1855C43.1174 38.4727 42.507 38.4727 42.0188 38.1855Z" fill="#EFC92E"/>
</svg>
